<svg width="128" height="29" viewBox="0 0 128 29" fill="none" xmlns="http://www.w3.org/2000/svg">
<g clip-path="url(#clip0_108_41)">
<path d="M2.25551 20.6107H12.1797V22.6764H0V5.80688H2.25551V20.6107Z" fill="#EDE1D1"/>
<path d="M17.1452 20.7255H27.5205V22.6764H14.8896V5.80688H26.8438V7.64302H17.1452V13.0826H25.0394V14.9187H17.1452V20.7255Z" fill="#EDE1D1"/>
<path d="M74.7702 20.7255V5.80688H77.0258V22.6764H72.7854L65.9061 7.75778H65.3873V22.6764H63.1318V5.80688H67.3722L74.2515 20.7255H74.7702Z" fill="#EDE1D1"/>
<path d="M83.349 18.0631L81.9957 22.6764H79.7402L84.7024 5.80688H90.1156L95.0777 22.6764H92.8222L91.4689 18.0631H83.349ZM86.3489 7.87254L83.958 15.9974H90.8599L88.469 7.87254H86.3489Z" fill="#EDE1D1"/>
<path d="M110.726 20.4501V22.5157L109.147 22.7453C107.929 22.7453 106.824 22.0108 106.215 20.6796L105.177 18.4303C104.952 17.8565 104.591 17.5352 104.23 17.5123H100.035V22.6764H97.7793V5.80688H105.2C108.38 5.80688 110.952 8.42338 110.952 11.6596C110.952 14.1843 109.35 16.3647 107.14 17.168L108.2 19.555C108.448 20.1288 108.786 20.4501 109.147 20.4501H110.726ZM105.2 7.9873H100.035V15.3318H105.2C107.05 15.3318 108.696 13.5646 108.696 11.6596C108.696 9.73163 107.072 7.9873 105.2 7.9873Z" fill="#EDE1D1"/>
<path d="M119.282 22.6764H113.44V5.80688H119.282C123.906 5.80688 127.876 9.54802 127.876 14.2302C127.876 18.9353 123.906 22.6764 119.282 22.6764ZM115.696 20.6796H119.282C122.936 20.6796 125.62 17.3746 125.62 14.2302C125.62 10.4661 122.327 7.80368 119.282 7.80368H115.696V20.6796Z" fill="#EDE1D1"/>
<path d="M59.2632 14.3448C59.2632 22.2672 52.9517 28.6897 45.1663 28.6897C37.3808 28.6897 31.0693 22.2672 31.0693 14.3448C31.0693 6.42241 37.3808 0 45.1663 0C52.9517 0 59.2632 6.42241 59.2632 14.3448Z" fill="#EDE1D1"/>
<path d="M39.876 16.4633L38.949 19.6231H37.4043L40.8031 8.0686H44.5106L47.9093 19.6231H46.3646L45.4376 16.4633H39.876ZM41.9308 9.48346L40.293 15.0485H45.0203L43.3828 9.48346H41.9308Z" fill="#412E27"/>
<path d="M51.4588 8.0686V19.6231H49.9141V8.0686H51.4588Z" fill="#412E27"/>
</g>
<defs>
<clipPath id="clip0_108_41">
<rect width="128" height="29" fill="white"/>
</clipPath>
</defs>
</svg>
