<svg width="378" height="230" viewBox="0 0 378 230" fill="none" xmlns="http://www.w3.org/2000/svg">
<rect width="378" height="230" fill="#121212"/>
<path d="M216.084 126.036V119.736H216.936V124.74L221.148 119.736H221.904V126.036H221.052V121.02L216.852 126.036H216.084Z" fill="white"/>
<path d="M207.822 126.036V119.736H208.674V124.74L212.886 119.736H213.642V126.036H212.79V121.02L208.59 126.036H207.822Z" fill="white"/>
<path d="M199.619 126.036V119.736H200.471V125.292H204.323V119.736H205.175V126.036H199.619ZM205.391 127.56V125.964L205.607 126.036H204.323V125.292H206.195V127.56H205.391Z" fill="white"/>
<path d="M196.535 126.036V124.644L196.499 124.416V122.088C196.499 121.552 196.347 121.14 196.043 120.852C195.747 120.564 195.303 120.42 194.711 120.42C194.303 120.42 193.915 120.488 193.547 120.624C193.179 120.76 192.867 120.94 192.611 121.164L192.227 120.528C192.547 120.256 192.931 120.048 193.379 119.904C193.827 119.752 194.299 119.676 194.795 119.676C195.611 119.676 196.239 119.88 196.679 120.288C197.127 120.688 197.351 121.3 197.351 122.124V126.036H196.535ZM194.363 126.096C193.891 126.096 193.479 126.02 193.127 125.868C192.783 125.708 192.519 125.492 192.335 125.22C192.151 124.94 192.059 124.62 192.059 124.26C192.059 123.932 192.135 123.636 192.287 123.372C192.447 123.1 192.703 122.884 193.055 122.724C193.415 122.556 193.895 122.472 194.495 122.472H196.667V123.108H194.519C193.911 123.108 193.487 123.216 193.247 123.432C193.015 123.648 192.899 123.916 192.899 124.236C192.899 124.596 193.039 124.884 193.319 125.1C193.599 125.316 193.991 125.424 194.495 125.424C194.975 125.424 195.387 125.316 195.731 125.1C196.083 124.876 196.339 124.556 196.499 124.14L196.691 124.728C196.531 125.144 196.251 125.476 195.851 125.724C195.459 125.972 194.963 126.096 194.363 126.096Z" fill="white"/>
<path d="M187.684 126.096C187.14 126.096 186.648 125.972 186.208 125.724C185.768 125.468 185.416 125.104 185.152 124.632C184.896 124.152 184.768 123.568 184.768 122.88C184.768 122.192 184.896 121.612 185.152 121.14C185.408 120.66 185.756 120.296 186.196 120.048C186.636 119.8 187.132 119.676 187.684 119.676C188.284 119.676 188.82 119.812 189.292 120.084C189.772 120.348 190.148 120.724 190.42 121.212C190.692 121.692 190.828 122.248 190.828 122.88C190.828 123.52 190.692 124.08 190.42 124.56C190.148 125.04 189.772 125.416 189.292 125.688C188.82 125.96 188.284 126.096 187.684 126.096ZM184.432 128.364V119.736H185.248V121.632L185.164 122.892L185.284 124.164V128.364H184.432ZM187.624 125.34C188.072 125.34 188.472 125.24 188.824 125.04C189.176 124.832 189.456 124.544 189.664 124.176C189.872 123.8 189.976 123.368 189.976 122.88C189.976 122.392 189.872 121.964 189.664 121.596C189.456 121.228 189.176 120.94 188.824 120.732C188.472 120.524 188.072 120.42 187.624 120.42C187.176 120.42 186.772 120.524 186.412 120.732C186.06 120.94 185.78 121.228 185.572 121.596C185.372 121.964 185.272 122.392 185.272 122.88C185.272 123.368 185.372 123.8 185.572 124.176C185.78 124.544 186.06 124.832 186.412 125.04C186.772 125.24 187.176 125.34 187.624 125.34Z" fill="white"/>
<path d="M179.713 126.096C179.057 126.096 178.481 125.96 177.985 125.688C177.489 125.408 177.101 125.028 176.821 124.548C176.541 124.06 176.401 123.504 176.401 122.88C176.401 122.256 176.533 121.704 176.797 121.224C177.069 120.744 177.437 120.368 177.901 120.096C178.373 119.816 178.901 119.676 179.485 119.676C180.077 119.676 180.601 119.812 181.057 120.084C181.521 120.348 181.885 120.724 182.149 121.212C182.413 121.692 182.545 122.248 182.545 122.88C182.545 122.92 182.541 122.964 182.533 123.012C182.533 123.052 182.533 123.096 182.533 123.144H177.049V122.508H182.077L181.741 122.76C181.741 122.304 181.641 121.9 181.441 121.548C181.249 121.188 180.985 120.908 180.649 120.708C180.313 120.508 179.925 120.408 179.485 120.408C179.053 120.408 178.665 120.508 178.321 120.708C177.977 120.908 177.709 121.188 177.517 121.548C177.325 121.908 177.229 122.32 177.229 122.784V122.916C177.229 123.396 177.333 123.82 177.541 124.188C177.757 124.548 178.053 124.832 178.429 125.04C178.813 125.24 179.249 125.34 179.737 125.34C180.121 125.34 180.477 125.272 180.805 125.136C181.141 125 181.429 124.792 181.669 124.512L182.149 125.064C181.869 125.4 181.517 125.656 181.093 125.832C180.677 126.008 180.217 126.096 179.713 126.096Z" fill="white"/>
<path d="M168.916 126.036V119.736H169.768V122.52H173.74V119.736H174.592V126.036H173.74V123.252H169.768V126.036H168.916Z" fill="white"/>
<path d="M164.198 126.096C163.542 126.096 162.966 125.96 162.47 125.688C161.974 125.408 161.586 125.028 161.306 124.548C161.026 124.06 160.886 123.504 160.886 122.88C160.886 122.256 161.018 121.704 161.282 121.224C161.554 120.744 161.922 120.368 162.386 120.096C162.858 119.816 163.386 119.676 163.97 119.676C164.562 119.676 165.086 119.812 165.542 120.084C166.006 120.348 166.37 120.724 166.634 121.212C166.898 121.692 167.03 122.248 167.03 122.88C167.03 122.92 167.026 122.964 167.018 123.012C167.018 123.052 167.018 123.096 167.018 123.144H161.534V122.508H166.562L166.226 122.76C166.226 122.304 166.126 121.9 165.926 121.548C165.734 121.188 165.47 120.908 165.134 120.708C164.798 120.508 164.41 120.408 163.97 120.408C163.538 120.408 163.15 120.508 162.806 120.708C162.462 120.908 162.194 121.188 162.002 121.548C161.81 121.908 161.714 122.32 161.714 122.784V122.916C161.714 123.396 161.818 123.82 162.026 124.188C162.242 124.548 162.538 124.832 162.914 125.04C163.298 125.24 163.734 125.34 164.222 125.34C164.606 125.34 164.962 125.272 165.29 125.136C165.626 125 165.914 124.792 166.154 124.512L166.634 125.064C166.354 125.4 166.002 125.656 165.578 125.832C165.162 126.008 164.702 126.096 164.198 126.096Z" fill="white"/>
<path d="M156.096 126.036V119.736H160.56V120.48H156.732L156.948 120.264V126.036H156.096Z" fill="white"/>
<path d="M215.983 110.036V104.252L216.199 104.48H213.595V103.736H219.223V104.48H216.619L216.835 104.252V110.036H215.983Z" fill="white"/>
<path d="M211.699 110.036V108.644L211.663 108.416V106.088C211.663 105.552 211.511 105.14 211.207 104.852C210.911 104.564 210.467 104.42 209.875 104.42C209.467 104.42 209.079 104.488 208.711 104.624C208.343 104.76 208.031 104.94 207.775 105.164L207.391 104.528C207.711 104.256 208.095 104.048 208.543 103.904C208.991 103.752 209.463 103.676 209.959 103.676C210.775 103.676 211.403 103.88 211.843 104.288C212.291 104.688 212.515 105.3 212.515 106.124V110.036H211.699ZM209.527 110.096C209.055 110.096 208.643 110.02 208.291 109.868C207.947 109.708 207.683 109.492 207.499 109.22C207.315 108.94 207.223 108.62 207.223 108.26C207.223 107.932 207.299 107.636 207.451 107.372C207.611 107.1 207.867 106.884 208.219 106.724C208.579 106.556 209.059 106.472 209.659 106.472H211.831V107.108H209.683C209.075 107.108 208.651 107.216 208.411 107.432C208.179 107.648 208.063 107.916 208.063 108.236C208.063 108.596 208.203 108.884 208.483 109.1C208.763 109.316 209.155 109.424 209.659 109.424C210.139 109.424 210.551 109.316 210.895 109.1C211.247 108.876 211.503 108.556 211.663 108.14L211.855 108.728C211.695 109.144 211.415 109.476 211.015 109.724C210.623 109.972 210.127 110.096 209.527 110.096Z" fill="white"/>
<path d="M203.315 110.036V104.252L203.531 104.48H200.927V103.736H206.555V104.48H203.951L204.167 104.252V110.036H203.315Z" fill="white"/>
<path d="M198.698 105.956C199.49 105.964 200.09 106.14 200.498 106.484C200.914 106.828 201.122 107.324 201.122 107.972C201.122 108.644 200.898 109.16 200.45 109.52C200.01 109.88 199.37 110.056 198.53 110.048L195.986 110.036V103.736H196.838V105.932L198.698 105.956ZM198.482 109.4C199.066 109.408 199.506 109.292 199.802 109.052C200.106 108.804 200.258 108.444 200.258 107.972C200.258 107.5 200.11 107.156 199.814 106.94C199.518 106.716 199.074 106.6 198.482 106.592L196.838 106.568V109.376L198.482 109.4Z" fill="white"/>
<path d="M187.252 110.024L187.312 109.292C187.368 109.3 187.42 109.312 187.468 109.328C187.524 109.336 187.572 109.34 187.612 109.34C187.868 109.34 188.072 109.244 188.224 109.052C188.384 108.86 188.504 108.604 188.584 108.284C188.664 107.964 188.72 107.604 188.752 107.204C188.784 106.796 188.812 106.388 188.836 105.98L188.944 103.736H193.564V110.036H192.712V104.228L192.928 104.48H189.496L189.7 104.216L189.604 106.04C189.58 106.584 189.536 107.104 189.472 107.6C189.416 108.096 189.324 108.532 189.196 108.908C189.076 109.284 188.908 109.58 188.692 109.796C188.476 110.004 188.2 110.108 187.864 110.108C187.768 110.108 187.668 110.1 187.564 110.084C187.468 110.068 187.364 110.048 187.252 110.024Z" fill="white"/>
<path d="M182.102 112.424C181.806 112.424 181.522 112.376 181.25 112.28C180.986 112.184 180.758 112.04 180.566 111.848L180.962 111.212C181.122 111.364 181.294 111.48 181.478 111.56C181.67 111.648 181.882 111.692 182.114 111.692C182.394 111.692 182.634 111.612 182.834 111.452C183.042 111.3 183.238 111.028 183.422 110.636L183.83 109.712L183.926 109.58L186.518 103.736H187.358L184.202 110.792C184.026 111.2 183.83 111.524 183.614 111.764C183.406 112.004 183.178 112.172 182.93 112.268C182.682 112.372 182.406 112.424 182.102 112.424ZM183.782 110.216L180.878 103.736H181.766L184.334 109.52L183.782 110.216Z" fill="white"/>
<path d="M177.276 110.108C176.82 110.108 176.368 110.044 175.92 109.916C175.472 109.788 175.076 109.592 174.732 109.328L175.008 108.692C175.312 108.916 175.664 109.088 176.064 109.208C176.464 109.32 176.86 109.376 177.252 109.376C177.644 109.368 177.984 109.312 178.272 109.208C178.56 109.104 178.784 108.96 178.944 108.776C179.104 108.592 179.184 108.384 179.184 108.152C179.184 107.816 179.032 107.556 178.728 107.372C178.424 107.18 178.008 107.084 177.48 107.084H176.4V106.46H177.42C177.732 106.46 178.008 106.42 178.248 106.34C178.488 106.26 178.672 106.144 178.8 105.992C178.936 105.84 179.004 105.66 179.004 105.452C179.004 105.228 178.924 105.036 178.764 104.876C178.612 104.716 178.4 104.596 178.128 104.516C177.856 104.436 177.548 104.396 177.204 104.396C176.892 104.404 176.568 104.452 176.232 104.54C175.896 104.62 175.564 104.744 175.236 104.912L174.996 104.252C175.364 104.06 175.728 103.916 176.088 103.82C176.456 103.716 176.824 103.664 177.192 103.664C177.696 103.648 178.148 103.708 178.548 103.844C178.956 103.98 179.28 104.176 179.52 104.432C179.76 104.68 179.88 104.98 179.88 105.332C179.88 105.644 179.784 105.916 179.592 106.148C179.4 106.38 179.144 106.56 178.824 106.688C178.504 106.816 178.14 106.88 177.732 106.88L177.768 106.652C178.488 106.652 179.048 106.792 179.448 107.072C179.856 107.352 180.06 107.732 180.06 108.212C180.06 108.588 179.936 108.92 179.688 109.208C179.44 109.488 179.104 109.708 178.68 109.868C178.264 110.028 177.796 110.108 177.276 110.108Z" fill="white"/>
<path d="M171.041 110.096C170.385 110.096 169.809 109.96 169.313 109.688C168.817 109.408 168.429 109.028 168.149 108.548C167.869 108.06 167.729 107.504 167.729 106.88C167.729 106.256 167.861 105.704 168.125 105.224C168.397 104.744 168.765 104.368 169.229 104.096C169.701 103.816 170.229 103.676 170.813 103.676C171.405 103.676 171.929 103.812 172.385 104.084C172.849 104.348 173.213 104.724 173.477 105.212C173.741 105.692 173.873 106.248 173.873 106.88C173.873 106.92 173.869 106.964 173.861 107.012C173.861 107.052 173.861 107.096 173.861 107.144H168.377V106.508H173.405L173.069 106.76C173.069 106.304 172.969 105.9 172.769 105.548C172.577 105.188 172.313 104.908 171.977 104.708C171.641 104.508 171.253 104.408 170.813 104.408C170.381 104.408 169.993 104.508 169.649 104.708C169.305 104.908 169.037 105.188 168.845 105.548C168.653 105.908 168.557 106.32 168.557 106.784V106.916C168.557 107.396 168.661 107.82 168.869 108.188C169.085 108.548 169.381 108.832 169.757 109.04C170.141 109.24 170.577 109.34 171.065 109.34C171.449 109.34 171.805 109.272 172.133 109.136C172.469 109 172.757 108.792 172.997 108.512L173.477 109.064C173.197 109.4 172.845 109.656 172.421 109.832C172.005 110.008 171.545 110.096 171.041 110.096Z" fill="white"/>
<path d="M160.19 110.036V101.636H163.334C164.046 101.636 164.658 101.752 165.17 101.984C165.682 102.208 166.074 102.536 166.346 102.968C166.626 103.392 166.766 103.908 166.766 104.516C166.766 105.108 166.626 105.62 166.346 106.052C166.074 106.476 165.682 106.804 165.17 107.036C164.658 107.268 164.046 107.384 163.334 107.384H160.682L161.078 106.964V110.036H160.19ZM161.078 107.036L160.682 106.604H163.31C164.15 106.604 164.786 106.424 165.218 106.064C165.658 105.696 165.878 105.18 165.878 104.516C165.878 103.844 165.658 103.324 165.218 102.956C164.786 102.588 164.15 102.404 163.31 102.404H160.682L161.078 101.984V107.036Z" fill="white"/>
</svg>
