<svg width="155" height="35" viewBox="0 0 155 35" fill="none" xmlns="http://www.w3.org/2000/svg">
<path d="M2.7254 24.9046H14.7172V27.4006H0V7.0166H2.7254V24.9046Z" fill="#412E27"/>
<path d="M20.7173 25.0433H33.2542V27.4006H17.9919V7.0166H32.4366V9.23527H20.7173V15.8081H30.2563V18.0267H20.7173V25.0433Z" fill="#412E27"/>
<path d="M90.348 25.0433V7.0166H93.0734V27.4006H87.9496L79.6372 9.37394H79.0103V27.4006H76.2849V7.0166H81.4087L89.7212 25.0433H90.348Z" fill="#412E27"/>
<path d="M100.713 21.8262L99.0779 27.4006H96.3525L102.348 7.0166H108.889L114.885 27.4006H112.16L110.525 21.8262H100.713ZM104.338 9.5126L101.449 19.3302H109.789L106.9 9.5126H104.338Z" fill="#412E27"/>
<path d="M133.795 24.7105V27.2065L131.887 27.4838C130.415 27.4838 129.08 26.5963 128.344 24.9878L127.09 22.2699C126.817 21.5766 126.381 21.1883 125.945 21.1606H120.876V27.4006H118.15V7.0166H127.117C130.96 7.0166 134.067 10.1782 134.067 14.0886C134.067 17.1393 132.132 19.7739 129.461 20.7446L130.742 23.6289C131.042 24.3222 131.451 24.7105 131.887 24.7105H133.795ZM127.117 9.65127H120.876V18.5259H127.117C129.352 18.5259 131.342 16.3905 131.342 14.0886C131.342 11.759 129.379 9.65127 127.117 9.65127Z" fill="#412E27"/>
<path d="M144.133 27.4006H137.074V7.0166H144.133C149.72 7.0166 154.517 11.5371 154.517 17.1947C154.517 22.8801 149.72 27.4006 144.133 27.4006ZM139.799 24.9878H144.133C148.548 24.9878 151.791 20.9942 151.791 17.1947C151.791 12.6465 147.812 9.4294 144.133 9.4294H139.799V24.9878Z" fill="#412E27"/>
<path d="M71.6099 17.3333C71.6099 26.9063 63.9835 34.6667 54.5761 34.6667C45.1687 34.6667 37.5424 26.9063 37.5424 17.3333C37.5424 7.76041 45.1687 0 54.5761 0C63.9835 0 71.6099 7.76041 71.6099 17.3333Z" fill="#412E27"/>
<path d="M48.1827 19.8929L47.0626 23.711H45.196L49.3029 9.74933H53.7828L57.8896 23.711H56.0231L54.9029 19.8929H48.1827ZM50.6656 11.459L48.6866 18.1833H54.3987L52.4201 11.459H50.6656Z" fill="#EDE1D1"/>
<path d="M62.1794 9.74933V23.711H60.3129V9.74933H62.1794Z" fill="#EDE1D1"/>
</svg>