<svg width="906" height="348" viewBox="0 0 906 348" fill="none" xmlns="http://www.w3.org/2000/svg">
<path fill-rule="evenodd" clip-rule="evenodd" d="M431.457 217.203L430.543 216.797L372.76 346.5H6.10352e-05V347.5H373.409L431.457 217.203Z" fill="white"/>
<path fill-rule="evenodd" clip-rule="evenodd" d="M474.543 217.203L475.457 216.797L533.24 346.5H906V347.5H532.591L474.543 217.203Z" fill="white"/>
<path fill-rule="evenodd" clip-rule="evenodd" d="M0 94.5H346V95.5H0V94.5Z" fill="white" fill-opacity="0.25"/>
<path fill-rule="evenodd" clip-rule="evenodd" d="M560 94.5H906V95.5H560V94.5Z" fill="white" fill-opacity="0.25"/>
<path fill-rule="evenodd" clip-rule="evenodd" d="M337.822 286.5H3.05176e-05V285.5H337.38L422.63 191.664L423.37 192.336L337.822 286.5Z" fill="white"/>
<path fill-rule="evenodd" clip-rule="evenodd" d="M337.822 0.5H3.05176e-05V1.5H337.38L422.63 95.3362L423.37 94.6638L337.822 0.5Z" fill="white" fill-opacity="0.25"/>
<path fill-rule="evenodd" clip-rule="evenodd" d="M568.178 286.5H906V285.5H568.62L483.37 191.664L482.63 192.336L568.178 286.5Z" fill="white"/>
<path fill-rule="evenodd" clip-rule="evenodd" d="M568.178 0.5H906V1.5H568.62L483.37 95.3362L482.63 94.6638L568.178 0.5Z" fill="white" fill-opacity="0.25"/>
</svg>
