<svg width="16" height="16" viewBox="0 0 16 16" xmlns="http://www.w3.org/2000/svg"><path fill-rule="evenodd" clip-rule="evenodd" d="M0.212065 8C0.212065 7.44772 0.65978 7 1.21207 7L7.00029 7L7.00029 1.21177C7.00029 0.659489 7.44801 0.211773 8.00029 0.211774C8.55258 0.211773 9.00029 0.659488 9.00029 1.21177L9.00029 7H14.7885C15.3408 7 15.7885 7.44772 15.7885 8C15.7885 8.55228 15.3408 9 14.7885 9H9.00029L9.00029 14.7882C9.00029 15.3405 8.55258 15.7882 8.00029 15.7882C7.44801 15.7882 7.00029 15.3405 7.00029 14.7882L7.00029 9L1.21207 9C0.65978 9 0.212065 8.55228 0.212065 8Z"/></svg>